# xmcd
#
# Track frame offsets:
#	150
#	20550
#	48034
#	70499
#	86987
#	110993
#	133313
#	151745
#	168773
#	194724
#	210543
#	223563
#	242235
#	267159
#	291684
#	318619
#
# Disc length: 4534 seconds
#
# Revision: 1
# Processed by: cddbd v1.5.2PL0 Copyright (c) Steve Scherf et al.
# Submitted via: audiograbber 1.83.01
#
DISCID=0211b410
DTITLE=Salsa - Diamantes De Salsa CD1
DYEAR=2007
DGENRE=Salsa
TTITLE0=Grupo Compay Segundo - Como Un  Gorrion
TTITLE1=Somos Amigos - Aquellas Pequenas Cosas
TTITLE2=Havana Mambo - Para La Gente Que Balla
TTITLE3=Willie De Cuba - A Mi Vecino
TTITLE4=Los Van Van - Artesano Del Espacio
TTITLE5=Ricardo Ecemendia - Tumbaito
TTITLE6=Obsession Latina - Cubanita
TTITLE7=Soneros De Verdad - Pio Pio Pa
TTITLE8=Vania Y Tata Gueines - Toca Madera
TTITLE9=Pancho Amat Y EL Cabildo Del Son - Tarres
TTITLE10=Virginia Quesada - Cuba Tu Isla
TTITLE11=Daniel Martinez Izquierdo - Mi Sentir
TTITLE12=Davis Alvarey Y Juego De Manos - Desamor
TTITLE13=Mayito Riviera - Lieva La A Tu Vacilon
TTITLE14=Pio Leyva - Me Gusta Todo Te Ti
TTITLE15=Havana Mambo - Fiesta Tropical
EXTD=
EXTT0=
EXTT1=
EXTT2=
EXTT3=
EXTT4=
EXTT5=
EXTT6=
EXTT7=
EXTT8=
EXTT9=
EXTT10=
EXTT11=
EXTT12=
EXTT13=
EXTT14=
EXTT15=
PLAYORDER=
